<svg id="Layer_1" enable-background="new 0 0 510.616 510.616" height="512" viewBox="0 0 510.616 510.616" width="512" xmlns="http://www.w3.org/2000/svg"><g><g><g><path d="m255.308.616c-98.131 0-158.58 55.352-158.747 55.445 0 0-2.513 3.137-2.983 5.222-3.818 16.948-7.385 39.663-7.385 56.238 0 140.833 118.763 254.972 259.596 254.972 54.231 0 114.568-25.992 154.949-57.243.903-.699 3.769-5.396 3.769-5.396.178-1.087 5.8-23.477 5.8-54.239.001-140.832-114.166-254.999-254.999-254.999z" fill="#daf1f4"/></g><path d="m345.767 365.295c-140.833 0-255-114.167-255-255 0-18.615 2.007-36.753 5.795-54.234-58.645 46.72-96.254 118.747-96.254 199.555 0 62.221 22.285 119.237 59.308 163.502l85.908 66.721c33.249 15.884 70.478 24.777 109.784 24.777 68.685 0 131.515-27.306 177.626-72.049l4.86-14.941 8.547.909c4.013-4.532 7.868-9.211 11.556-14.026l-.727-13.084 12.396-3.474c2.138-3.306 4.203-6.665 6.19-10.076l-2.734-12.652 12.105-4.987c2.134-4.428 4.144-8.93 6.026-13.501l-3.819-8.815 10.928-10.682c2.436-7.638 4.523-15.438 6.245-23.384-43.559 34.696-98.723 55.441-158.74 55.441z" fill="#b1e4f9"/></g><path d="m95.189 300.822v132.272l18.185 34.383c10.31 6.923 21.152 13.113 32.455 18.495v-130.127z" fill="#ffbe82"/><path d="m59.627 300.822v118.286c7.82 9.35 16.296 18.131 25.359 26.272l11.917-16.03v-128.528z" fill="#ff884d"/><g><path d="m115.2 358.03c-5.208 0-10.378-2.212-13.995-6.506-6.507-7.725-5.52-19.261 2.204-25.767l15.35-12.93-27.782-27.581c-7.167-7.115-7.209-18.693-.094-25.861 7.117-7.168 18.693-7.208 25.861-.094l41.969 41.665c3.642 3.616 5.597 8.597 5.388 13.725-.21 5.128-2.565 9.933-6.49 13.238l-30.639 25.809c-3.431 2.89-7.614 4.302-11.772 4.302z" fill="#ffbe82"/></g><path d="m145.829 313.657c-4.162-.002-8.348 1.401-11.782 4.293l-30.639-25.195c-7.724 6.506-8.711 69.045-2.204 76.77 3.617 4.294 8.787 6.506 13.995 6.506 4.158 0 8.342-1.412 11.771-4.302l18.858-15.885v-42.187z" fill="#ff884d"/><path d="m84.988 266.467v178.913c8.917 8.009 18.397 15.402 28.382 22.104v-191.589l-25.705-34.158z" fill="#a56941"/><g><path d="m113.37 275.895-28.382-9.428v-266.235h28.382z" fill="#783c28"/></g><g><path d="m108.407 28.33-8.299 58.991c-8.841 62.845 60.824 106.551 113.56 71.245v-127.861c-35.087 5.314-70.174 6.631-105.261-2.375z" fill="#5ea570"/><g><path d="m348.372 174.441v-170.51c-45.478 6.715-90.956 20.318-136.434 27.033v143.477z" fill="#fff"/></g><g><path d="m483.076 133.907-66.332 64.888s-46.735-37.51-70.102-33.971c0-77.487 0-83.148 0-160.635 45.478-6.887 90.956-7.061 136.434 13.258z" fill="#dd544f"/></g><g><path d="m108.407 28.33c-10.391-2.667-20.782-6.24-31.173-10.882v232.46c45.478 20.318 90.956 20.145 136.434 13.258 0-34.867 0-69.733 0-104.6-50.305-20.358-88.369-71.676-105.261-130.236z" fill="#4f8980"/></g><g><path d="m339.317 166.102c-46.786 8.07-90.438 8.045-127.379-8.281v105.603c45.478-6.715 90.956-20.318 136.434-27.033 0-23.962 0-47.924 0-71.887-3.005.548-6.022 1.094-9.055 1.598z" fill="#f5f0f0"/></g><g><path d="m346.642 164.824v71.826c45.478-6.887 90.956-7.061 136.434 13.258 0-38.667 0-77.334 0-116.001-38.28 8.849-85.357 21.176-136.434 30.917z" fill="#d80a61"/></g><g><path d="m268.533 200.806c-10.885 0-20.955-3.376-29.176-9.921-11.18-8.9-17.592-23.025-17.592-38.753 0-2.84 2.303-5.143 5.143-5.143s5.143 2.303 5.143 5.143c0 12.762 4.869 23.667 13.713 30.707 8.859 7.054 20.666 9.347 33.239 6.453 27.16-6.245 49.257-32.852 49.257-59.312 0-2.84 2.303-5.143 5.143-5.143s5.143 2.303 5.143 5.143c0 31.5-25.142 61.955-57.237 69.335-4.34.998-8.617 1.491-12.776 1.491z" fill="#5ea570"/></g><g><path d="m320.856 131.354c0 22.437-18.222 44.32-40.701 49.427-22.478 5.107-40.701-9.455-40.701-31.975 0-22.437 18.223-44.32 40.701-49.427 22.479-5.108 40.702 9.454 40.701 31.975z" fill="#a56941"/></g></g><path d="m498.249 333.234c-18.463-.769-47.464 6.334-47.464 6.334s55.1-29.016 46.243-41.848-55.527 28.398-55.527 28.398 35.304-51.299 21.498-58.545-35.969 50.95-35.969 50.95 7.42-61.83-8.172-61.83-8.172 61.83-8.172 61.83-22.163-58.196-35.969-50.95 21.498 58.545 21.498 58.545-46.67-41.23-55.527-28.398 46.243 41.848 46.243 41.848-60.485-14.819-62.364.659 60.394 15.565 60.394 15.565-60.443 14.987-54.914 29.566 60.709-14.285 60.709-14.285-46.555 41.36-34.884 51.699 47.117-40.861 47.117-40.861-22.001 58.257-6.863 61.989c15.139 3.731 22.731-58.078 22.731-58.078s4.697 38.226 14.067 52.737c4.642-4.504 9.119-9.179 13.411-14.027-2.4-18.229-11.61-42.621-11.61-42.621s11.249 16.248 23.159 28.59c4.1-5.353 7.999-10.873 11.674-16.555-10.356-11.994-22.6-22.873-22.6-22.873s14.117 7.383 28.785 12.795c3.344-5.738 6.48-11.616 9.379-17.634-15.2-6.184-32.369-10.441-32.369-10.441s21.138-.031 38.413-3.117c2.616-6.351 4.977-12.837 7.083-19.442z" fill="#ffc305"/><g><path d="m237.178 336.591c10.264 0 10.335 39.732 10.335 39.732s18.528-35.148 27.616-30.378-9.313 39.984-9.313 39.984 32.74-22.512 38.57-14.065-26.828 31.076-26.828 31.076 39.451-4.718 40.688 5.47c1.237 10.189-38.197 15.049-38.197 15.049s37.125 14.156 33.485 23.753-40.815-4.426-40.815-4.426 26.294 29.787 18.611 36.593c-7.682 6.806-34.083-22.887-34.083-22.887s9.439 38.595-.526 41.051-19.543-36.104-19.543-36.104-9.578 38.561-19.543 36.104-.526-41.051-.526-41.051-26.401 29.693-34.083 22.887 18.611-36.593 18.611-36.593-37.176 14.022-40.815 4.426c-3.64-9.597 33.485-23.753 33.485-23.753s-39.434-4.86-38.197-15.049 40.688-5.47 40.688-5.47-32.658-22.629-26.828-31.076 38.57 14.065 38.57 14.065-18.401-35.214-9.313-39.984 27.616 30.378 27.616 30.378.071-39.732 10.335-39.732z" fill="#dd544f"/></g><g><circle cx="237.178" cy="417.123" fill="#ffc305" r="23.561"/></g><g><path d="m89.173 363.111-31.37-8.959c-7.085-2.027-14.439 1.537-17.363 8.069l1.464 9.001 41.449 13.541c1.343.384 11.881-1.817 13.211-1.817l1.931-11.775c-1.708-3.789-5.011-6.829-9.322-8.06z" fill="#ffbe82"/><path d="m85.163 379.81c-1.33 0-2.682-.183-4.024-.566l-31.37-8.959c-4.307-1.23-7.602-4.27-9.312-8.056-.284.634-.541 1.285-.737 1.972-2.219 7.77 2.28 15.865 10.049 18.084l31.37 8.959c1.343.384 2.694.566 4.024.566 6.367 0 12.225-4.189 14.06-10.615.988-3.459.638-6.979-.733-10.02-2.373 5.289-7.643 8.635-13.327 8.635z" fill="#ff965a"/><path d="m103.582 286.476c-1.522-3.378-4.32-6.184-8.047-7.63l-40.029-15.53c-7.533-2.924-16.007.814-18.93 8.348-2.922 7.532 12.163 13.242 19.696 16.165l29.009 9.394c6.808 2.205 14.378-.651 17.672-7.003.743-1.436 1.082-2.738.629-3.744z" fill="#ffbe82"/><path d="m90.24 295.116c-1.76 0-3.548-.319-5.287-.994l-40.029-15.53c-3.724-1.445-6.515-4.249-8.038-7.622-.104.231-.217.455-.31.693-2.922 7.532.814 16.007 8.348 18.93l40.029 15.53c1.739.675 3.527.994 5.287.994 5.862 0 11.395-3.548 13.643-9.342 1.476-3.805 1.248-7.848-.305-11.297-2.412 5.373-7.719 8.638-13.338 8.638z" fill="#ff965a"/><path d="m101.083 315.797c-1.51-3.426-4.328-6.275-8.094-7.736l-40.029-15.53c-7.533-2.923-16.007.814-18.93 8.348-2.922 7.532 9.424 14.697 16.957 17.62l40.954 14.579 9.81-15.443c-.182-.629-.405-1.242-.668-1.838z" fill="#ffbe82"/><path d="m87.694 325.331c-1.76 0-3.548-.319-5.287-.994l-40.029-15.53c-3.913-1.518-6.788-4.54-8.251-8.144-.03.073-.067.141-.096.215-2.922 7.532.814 16.007 8.348 18.93l40.029 15.53c1.739.675 3.527.994 5.287.994 5.862 0 11.395-3.548 13.643-9.342 1.404-3.618 1.257-7.449-.095-10.782-2.304 5.662-7.763 9.123-13.549 9.123z" fill="#ff965a"/><path d="m94.233 338.739-40.029-15.53c-7.534-2.924-16.007.814-18.93 8.348-2.922 7.532 21.061 15.441 28.594 18.363l35.311 9.248c2.921-7.533 2.587-17.506-4.946-20.429z" fill="#ffbe82"/><path d="m88.938 355.01c-1.76 0-3.548-.319-5.287-.994l-40.029-15.53c-3.724-1.445-6.515-4.249-8.038-7.622-.104.231-.217.455-.31.693-2.922 7.532.814 16.007 8.348 18.93l40.029 15.53c1.739.675 3.527.994 5.287.994 5.862 0 11.395-3.548 13.643-9.342 1.476-3.805 1.248-7.848-.305-11.297-2.412 5.372-7.719 8.638-13.338 8.638z" fill="#ff965a"/></g><g><path d="m115.2 358.03c-5.208 0-10.378-2.212-13.995-6.506-6.507-7.725-5.52-19.261 2.204-25.767l30.639-25.809c7.726-6.509 19.262-5.518 25.767 2.204 6.507 7.725 5.52 19.261-2.204 25.767l-30.639 25.809c-3.431 2.89-7.614 4.302-11.772 4.302z" fill="#ffbe82"/></g><path d="m157.61 310.919-30.639 25.809c-3.43 2.89-7.613 4.302-11.771 4.302-5.208 0-10.378-2.212-13.995-6.506-.869-1.032-1.595-2.136-2.198-3.283-3.351 6.385-2.735 14.428 2.198 20.284 3.617 4.294 8.787 6.506 13.995 6.506 4.158 0 8.342-1.412 11.771-4.302l30.639-25.809c6.692-5.637 8.317-15.046 4.402-22.484-1.069 2.037-2.534 3.909-4.402 5.483z" fill="#ff965a"/><g><circle cx="418.859" cy="350.378" fill="#fff" r="23.141"/></g></g></svg>